<svg xmlns="http://www.w3.org/2000/svg" xmlns:rdkit="http://www.rdkit.org/xml" xmlns:xlink="http://www.w3.org/1999/xlink" width="150" height="150" baseProfile="full" version="1.1" viewBox="0 0 150 150" xml:space="preserve"><rect style="opacity:1;fill:#fff;stroke:none" width="150" height="150" x="0" y="0"/><ellipse cx="53.2" cy="90.2" class="atom-0" rx="5.6" ry="5.6" style="fill:#e5e533;fill-rule:evenodd;stroke:#e5e533;stroke-width:1px;stroke-linecap:butt;stroke-linejoin:miter;stroke-opacity:1"/><ellipse cx="33.3" cy="46.1" class="atom-3" rx="5.6" ry="5.6" style="fill:#e5e533;fill-rule:evenodd;stroke:#e5e533;stroke-width:1px;stroke-linecap:butt;stroke-linejoin:miter;stroke-opacity:1"/><ellipse cx="56" cy="62.4" class="atom-4" rx="5.6" ry="5.6" style="fill:#e5e533;fill-rule:evenodd;stroke:#e5e533;stroke-width:1px;stroke-linecap:butt;stroke-linejoin:miter;stroke-opacity:1"/><ellipse cx="81.5" cy="50.9" class="atom-5" rx="5.6" ry="5.6" style="fill:#9999e5;fill-rule:evenodd;stroke:#9999e5;stroke-width:1px;stroke-linecap:butt;stroke-linejoin:miter;stroke-opacity:1"/><ellipse cx="104.2" cy="67.2" class="atom-6" rx="5.6" ry="5.6" style="fill:#ccc;fill-rule:evenodd;stroke:#ccc;stroke-width:1px;stroke-linecap:butt;stroke-linejoin:miter;stroke-opacity:1"/><ellipse cx="132" cy="70" class="atom-7" rx="5.6" ry="5.6" style="fill:#ccc;fill-rule:evenodd;stroke:#ccc;stroke-width:1px;stroke-linecap:butt;stroke-linejoin:miter;stroke-opacity:1"/><ellipse cx="115.7" cy="92.7" class="atom-8" rx="5.6" ry="5.6" style="fill:#ccc;fill-rule:evenodd;stroke:#ccc;stroke-width:1px;stroke-linecap:butt;stroke-linejoin:miter;stroke-opacity:1"/><path d="M 53.2,90.2 L 30.5,100.5" class="bond-0 atom-0 atom-1" style="fill:none;fill-rule:evenodd;stroke:#e5e5e5;stroke-width:1.5px;stroke-linecap:butt;stroke-linejoin:miter;stroke-opacity:1"/><path d="M 49.3,87.4 L 28.8,96.7" class="bond-0 atom-0 atom-1" style="fill:none;fill-rule:evenodd;stroke:#e5e5e5;stroke-width:1.5px;stroke-linecap:butt;stroke-linejoin:miter;stroke-opacity:1;stroke-dasharray:6,0,6"/><path d="M 10.6,56.3 L 33.3,46.1" class="bond-1 atom-2 atom-3" style="fill:none;fill-rule:evenodd;stroke:#e5e5e5;stroke-width:1.5px;stroke-linecap:butt;stroke-linejoin:miter;stroke-opacity:1"/><path d="M 12.3,60.2 L 32.8,50.9" class="bond-1 atom-2 atom-3" style="fill:none;fill-rule:evenodd;stroke:#e5e5e5;stroke-width:1.5px;stroke-linecap:butt;stroke-linejoin:miter;stroke-opacity:1;stroke-dasharray:6,0,6"/><path d="M 33.3,46.1 L 56.0,62.4" class="bond-2 atom-3 atom-4" style="fill:none;fill-rule:evenodd;stroke:#000;stroke-width:2px;stroke-linecap:butt;stroke-linejoin:miter;stroke-opacity:1"/><path d="M 32.8,50.9 L 51.6,64.4" class="bond-2 atom-3 atom-4" style="fill:none;fill-rule:evenodd;stroke:#000;stroke-width:2px;stroke-linecap:butt;stroke-linejoin:miter;stroke-opacity:1;stroke-dasharray:6,0,6"/><path d="M 56.0,62.4 L 81.5,50.9" class="bond-3 atom-4 atom-5" style="fill:none;fill-rule:evenodd;stroke:#000;stroke-width:2px;stroke-linecap:butt;stroke-linejoin:miter;stroke-opacity:1"/><path d="M 81.5,50.9 L 104.2,67.2" class="bond-4 atom-5 atom-6" style="fill:none;fill-rule:evenodd;stroke:#000;stroke-width:2px;stroke-linecap:butt;stroke-linejoin:miter;stroke-opacity:1"/><path d="M 104.2,67.2 L 132.0,70.0" class="bond-5 atom-6 atom-7" style="fill:none;fill-rule:evenodd;stroke:#000;stroke-width:2px;stroke-linecap:butt;stroke-linejoin:miter;stroke-opacity:1"/><path d="M 132.0,70.0 L 115.7,92.7" class="bond-6 atom-7 atom-8" style="fill:none;fill-rule:evenodd;stroke:#e5e5e5;stroke-width:1.5px;stroke-linecap:butt;stroke-linejoin:miter;stroke-opacity:1"/><path d="M 56.0,62.4 L 53.2,90.2" class="bond-7 atom-4 atom-0" style="fill:none;fill-rule:evenodd;stroke:#000;stroke-width:2px;stroke-linecap:butt;stroke-linejoin:miter;stroke-opacity:1"/><path d="M 51.6,64.4 L 49.3,87.4" class="bond-7 atom-4 atom-0" style="fill:none;fill-rule:evenodd;stroke:#000;stroke-width:2px;stroke-linecap:butt;stroke-linejoin:miter;stroke-opacity:1;stroke-dasharray:6,0,6"/><path d="M 115.7,92.7 L 104.2,67.2" class="bond-8 atom-8 atom-6" style="fill:none;fill-rule:evenodd;stroke:#000;stroke-width:2px;stroke-linecap:butt;stroke-linejoin:miter;stroke-opacity:1"/><path d="M 52.7,90.5 L 53.2,90.2 L 53.3,89.5" style="fill:none;stroke:#e5e5e5;stroke-width:1.5px;stroke-linecap:butt;stroke-linejoin:miter;stroke-opacity:1"/><path d="M 32.7,46.4 L 33.3,46.1 L 33.9,46.5" style="fill:none;stroke:#e5e5e5;stroke-width:1.5px;stroke-linecap:butt;stroke-linejoin:miter;stroke-opacity:1"/><path d="M 80.2,51.5 L 81.5,50.9 L 82.6,51.7" style="fill:none;stroke:#000;stroke-width:2px;stroke-linecap:butt;stroke-linejoin:miter;stroke-opacity:1"/><path d="M 131.3,69.9 L 132.0,70.0 L 131.6,70.6" style="fill:none;stroke:#000;stroke-width:2px;stroke-linecap:butt;stroke-linejoin:miter;stroke-opacity:1"/><path d="M 116.1,92.1 L 115.7,92.7 L 115.4,92.1" style="fill:none;stroke:#e5e5e5;stroke-width:1.5px;stroke-linecap:butt;stroke-linejoin:miter;stroke-opacity:1"/><path fill="#191919" d="M 25.4 98.9 L 26.6 97.8 L 25.0 97.4 L 25.2 96.6 L 26.7 97.4 L 26.5 95.8 L 27.3 95.8 L 27.1 97.4 L 28.5 96.7 L 28.8 97.4 L 27.2 97.7 L 28.3 98.9 L 27.6 99.4 L 26.9 97.9 L 26.1 99.4 L 25.4 98.9" class="atom-1"/><path fill="#191919" d="M 7.2 58.6 L 8.4 57.4 L 6.8 57.1 L 7.1 56.3 L 8.5 57.1 L 8.3 55.5 L 9.1 55.5 L 8.9 57.0 L 10.3 56.4 L 10.6 57.1 L 9.0 57.4 L 10.1 58.6 L 9.4 59.1 L 8.7 57.6 L 7.9 59.1 L 7.2 58.6" class="atom-2"/></svg>